<svg xmlns="http://www.w3.org/2000/svg" width="1280" height="720" viewBox="0 0 1280 720" font-family="'Segoe UI','Helvetica Neue',Arial,sans-serif">
<defs>
  <linearGradient id="bg" x1="0" y1="0" x2="1" y2="1">
    <stop offset="0" stop-color="#070d1a"/><stop offset="0.55" stop-color="#0b1a2e"/><stop offset="1" stop-color="#0a2430"/>
  </linearGradient>
  <linearGradient id="acc" x1="0" y1="0" x2="1" y2="0">
    <stop offset="0" stop-color="#00c6ff"/><stop offset="1" stop-color="#00e676"/>
  </linearGradient>
  <linearGradient id="accv" x1="0" y1="0" x2="0" y2="1">
    <stop offset="0" stop-color="#00c6ff"/><stop offset="1" stop-color="#00e676"/>
  </linearGradient>
  <filter id="blur" x="-50%" y="-50%" width="200%" height="200%"><feGaussianBlur stdDeviation="60"/></filter>
  <filter id="soft" x="-20%" y="-20%" width="140%" height="140%"><feDropShadow dx="0" dy="8" stdDeviation="10" flood-color="#000" flood-opacity="0.45"/></filter>
  <pattern id="dots" width="28" height="28" patternUnits="userSpaceOnUse"><circle cx="2" cy="2" r="1.4" fill="#ffffff" fill-opacity="0.05"/></pattern>
  <style>
    .flow{stroke-dasharray:8 8;animation:flow 1.2s linear infinite}
    @keyframes flow{to{stroke-dashoffset:-16}}
    .pulse{animation:pulse 1.4s ease-in-out infinite}
    @keyframes pulse{0%,100%{opacity:1}50%{opacity:.25}}
    .wave{animation:wave 1.8s ease-in-out infinite}
    @keyframes wave{0%,100%{opacity:.25}50%{opacity:1}}
  </style>
</defs><rect width="1280" height="720" rx="28" fill="url(#bg)"/><rect width="1280" height="720" rx="28" fill="url(#dots)"/><radialGradient id="g00c6ff200120"><stop offset="0" stop-color="#00c6ff" stop-opacity="0.32"/><stop offset="1" stop-color="#00c6ff" stop-opacity="0"/></radialGradient><circle cx="200" cy="120" r="323" fill="url(#g00c6ff200120)"/><radialGradient id="g00e6761100640"><stop offset="0" stop-color="#00e676" stop-opacity="0.29"/><stop offset="1" stop-color="#00e676" stop-opacity="0"/></radialGradient><circle cx="1100" cy="640" r="340" fill="url(#g00e6761100640)"/><radialGradient id="g7c4dff700380"><stop offset="0" stop-color="#7c4dff" stop-opacity="0.16"/><stop offset="1" stop-color="#7c4dff" stop-opacity="0"/></radialGradient><circle cx="700" cy="380" r="272" fill="url(#g7c4dff700380)"/><rect x="1.5" y="1.5" width="1277" height="717" rx="27" fill="none" stroke="#ffffff" stroke-opacity="0.08" stroke-width="2"/><text x="640.0" y="78" font-size="44" font-weight="800" fill="url(#acc)" text-anchor="middle" >How CamLink works</text><text x="640.0" y="114" font-size="20" font-weight="400" fill="#8fb3cc" text-anchor="middle" >From scan to finished tutorial in 4 simple steps</text><g filter="url(#soft)"><rect x="55" y="150" width="270" height="400" rx="26" fill="#0e1a2c" stroke="#00c6ff" stroke-opacity="0.7" stroke-width="2"/></g><rect x="115" y="146" width="150" height="8" rx="4" fill="#00c6ff"/><circle cx="99" cy="198" r="22" fill="#00c6ff"/><text x="99" y="207" font-size="24" font-weight="800" fill="#06121f" text-anchor="middle" >1</text><rect x="120" y="250" width="140" height="92" rx="10" fill="#0a1424" stroke="#00c6ff" stroke-width="3"/><rect x="176" y="342" width="28" height="16" fill="#00c6ff" fill-opacity=".5"/><rect x="150" y="356" width="80" height="8" rx="4" fill="#00c6ff" fill-opacity=".5"/><rect x="160" y="262" width="8" height="8" rx="1.5" fill="#e8f4ff"/><rect x="170" y="262" width="8" height="8" rx="1.5" fill="#e8f4ff"/><rect x="200" y="262" width="8" height="8" rx="1.5" fill="#e8f4ff"/><rect x="210" y="262" width="8" height="8" rx="1.5" fill="#e8f4ff"/><rect x="160" y="272" width="8" height="8" rx="1.5" fill="#e8f4ff"/><rect x="170" y="272" width="8" height="8" rx="1.5" fill="#e8f4ff"/><rect x="180" y="272" width="8" height="8" rx="1.5" fill="#e8f4ff"/><rect x="200" y="272" width="8" height="8" rx="1.5" fill="#e8f4ff"/><rect x="210" y="272" width="8" height="8" rx="1.5" fill="#e8f4ff"/><rect x="160" y="282" width="8" height="8" rx="1.5" fill="#e8f4ff"/><rect x="190" y="282" width="8" height="8" rx="1.5" fill="#e8f4ff"/><rect x="190" y="292" width="8" height="8" rx="1.5" fill="#e8f4ff"/><rect x="160" y="302" width="8" height="8" rx="1.5" fill="#e8f4ff"/><rect x="170" y="302" width="8" height="8" rx="1.5" fill="#e8f4ff"/><rect x="180" y="302" width="8" height="8" rx="1.5" fill="#e8f4ff"/><rect x="190" y="302" width="8" height="8" rx="1.5" fill="#e8f4ff"/><rect x="200" y="302" width="8" height="8" rx="1.5" fill="#e8f4ff"/><rect x="160" y="312" width="8" height="8" rx="1.5" fill="#e8f4ff"/><rect x="170" y="312" width="8" height="8" rx="1.5" fill="#e8f4ff"/><rect x="180" y="312" width="8" height="8" rx="1.5" fill="#e8f4ff"/><rect x="200" y="312" width="8" height="8" rx="1.5" fill="#e8f4ff"/><text x="190" y="440" font-size="23" font-weight="700" fill="#ffffff" text-anchor="middle" >Open the PC app</text><text x="190" y="482" font-size="16.5" font-weight="400" fill="#9db9cf" text-anchor="middle" >A QR code and a 6-digit</text><text x="190" y="506" font-size="16.5" font-weight="400" fill="#9db9cf" text-anchor="middle" >pairing code appear</text><circle cx="340" cy="350" r="15" fill="#0a1424" stroke="#2f5373" stroke-width="2"/><path d="M336 343 L344 350 L336 357" fill="none" stroke="url(#acc)" stroke-width="3" stroke-linecap="round" stroke-linejoin="round"/><g filter="url(#soft)"><rect x="355" y="150" width="270" height="400" rx="26" fill="#0e1a2c" stroke="#7c8cff" stroke-opacity="0.7" stroke-width="2"/></g><rect x="415" y="146" width="150" height="8" rx="4" fill="#7c8cff"/><circle cx="399" cy="198" r="22" fill="#7c8cff"/><text x="399" y="207" font-size="24" font-weight="800" fill="#06121f" text-anchor="middle" >2</text><rect x="448" y="244" width="84" height="130" rx="18" fill="#0a1424" stroke="#7c8cff" stroke-width="3"/><path transform="translate(462,262)" d="M0 14 V0 H14" fill="none" stroke="#e8f4ff" stroke-width="4" stroke-linecap="round"/><path transform="translate(518,262)" d="M0 0 H-14 V14" fill="none" stroke="#e8f4ff" stroke-width="4" stroke-linecap="round"/><path transform="translate(462,340)" d="M0 -14 V0 H14" fill="none" stroke="#e8f4ff" stroke-width="4" stroke-linecap="round"/><path transform="translate(518,340)" d="M0 0 H-14 V-14" fill="none" stroke="#e8f4ff" stroke-width="4" stroke-linecap="round"/><rect x="464" y="300" width="52" height="3" rx="1.5" fill="#7c8cff" class="pulse"/><text x="490" y="440" font-size="23" font-weight="700" fill="#ffffff" text-anchor="middle" >Scan with your phone</text><text x="490" y="482" font-size="16.5" font-weight="400" fill="#9db9cf" text-anchor="middle" >Open CamLink, tap Scan QR</text><text x="490" y="506" font-size="16.5" font-weight="400" fill="#9db9cf" text-anchor="middle" >(same Wi-Fi network)</text><circle cx="640" cy="350" r="15" fill="#0a1424" stroke="#2f5373" stroke-width="2"/><path d="M636 343 L644 350 L636 357" fill="none" stroke="url(#acc)" stroke-width="3" stroke-linecap="round" stroke-linejoin="round"/><g filter="url(#soft)"><rect x="655" y="150" width="270" height="400" rx="26" fill="#0e1a2c" stroke="#00e676" stroke-opacity="0.7" stroke-width="2"/></g><rect x="715" y="146" width="150" height="8" rx="4" fill="#00e676"/><circle cx="699" cy="198" r="22" fill="#00e676"/><text x="699" y="207" font-size="24" font-weight="800" fill="#06121f" text-anchor="middle" >3</text><rect x="700" y="268" width="40" height="70" rx="9" fill="#0a1424" stroke="#00e676" stroke-width="3"/><circle cx="720" cy="286" r="6" fill="#00e676"/><rect x="820" y="272" width="64" height="48" rx="6" fill="#0a1424" stroke="#00e676" stroke-width="3"/><rect x="842" y="320" width="20" height="10" fill="#00e676" fill-opacity=".5"/><circle cx="868" cy="306" r="11" fill="#00e676" fill-opacity=".85"/><path d="M746 303 H814" stroke="#00e676" stroke-width="4" stroke-linecap="round" class="flow"/><text x="778" y="378" font-size="13" font-weight="700" fill="#00e676" text-anchor="middle" letter-spacing="1.5">WEBRTC • WI-FI</text><text x="790" y="440" font-size="23" font-weight="700" fill="#ffffff" text-anchor="middle" >Stream live</text><text x="790" y="482" font-size="16.5" font-weight="400" fill="#9db9cf" text-anchor="middle" >Camera + mic reach your PC</text><text x="790" y="506" font-size="16.5" font-weight="400" fill="#9db9cf" text-anchor="middle" >live over WebRTC</text><circle cx="940" cy="350" r="15" fill="#0a1424" stroke="#2f5373" stroke-width="2"/><path d="M936 343 L944 350 L936 357" fill="none" stroke="url(#acc)" stroke-width="3" stroke-linecap="round" stroke-linejoin="round"/><g filter="url(#soft)"><rect x="955" y="150" width="270" height="400" rx="26" fill="#0e1a2c" stroke="#ffb300" stroke-opacity="0.7" stroke-width="2"/></g><rect x="1015" y="146" width="150" height="8" rx="4" fill="#ffb300"/><circle cx="999" cy="198" r="22" fill="#ffb300"/><text x="999" y="207" font-size="24" font-weight="800" fill="#06121f" text-anchor="middle" >4</text><circle cx="1090" cy="306" r="52" fill="none" stroke="#ffb300" stroke-width="4" stroke-opacity=".6"/><circle cx="1090" cy="306" r="36" fill="#ff4d4d" class="pulse"/><rect x="1020" y="368" width="140" height="22" rx="6" fill="#0a1424" stroke="#ffb300" stroke-width="2"/><rect x="1028" y="373" width="12" height="12" rx="2" fill="#ffb300" fill-opacity=".6"/><rect x="1050" y="373" width="12" height="12" rx="2" fill="#ffb300" fill-opacity=".6"/><rect x="1072" y="373" width="12" height="12" rx="2" fill="#ffb300" fill-opacity=".6"/><rect x="1094" y="373" width="12" height="12" rx="2" fill="#ffb300" fill-opacity=".6"/><rect x="1116" y="373" width="12" height="12" rx="2" fill="#ffb300" fill-opacity=".6"/><rect x="1138" y="373" width="12" height="12" rx="2" fill="#ffb300" fill-opacity=".6"/><text x="1090" y="440" font-size="23" font-weight="700" fill="#ffffff" text-anchor="middle" >Press Record</text><text x="1090" y="482" font-size="16.5" font-weight="400" fill="#9db9cf" text-anchor="middle" >Screen + face bubble are</text><text x="1090" y="506" font-size="16.5" font-weight="400" fill="#9db9cf" text-anchor="middle" >saved as one video</text><rect x="55" y="582" width="1170" height="102" rx="24" fill="#ffffff" fill-opacity="0.04" stroke="#ffffff" stroke-opacity="0.1"/><circle cx="120" cy="633" r="20" fill="url(#accv)"/><path d="M111 633 L118 641 L130 625" fill="none" stroke="#06121f" stroke-width="4" stroke-linecap="round" stroke-linejoin="round"/><text x="152" y="628" font-size="20" font-weight="700" fill="#ffffff" text-anchor="start" >Private by design</text><text x="152" y="653" font-size="15" font-weight="400" fill="#8fb3cc" text-anchor="start" >Everything stays on your local Wi-Fi</text><circle cx="505" cy="633" r="20" fill="url(#accv)"/><path d="M496 633 L503 641 L515 625" fill="none" stroke="#06121f" stroke-width="4" stroke-linecap="round" stroke-linejoin="round"/><text x="537" y="628" font-size="20" font-weight="700" fill="#ffffff" text-anchor="start" >Low latency</text><text x="537" y="653" font-size="15" font-weight="400" fill="#8fb3cc" text-anchor="start" >Live WebRTC video + audio</text><circle cx="890" cy="633" r="20" fill="url(#accv)"/><path d="M881 633 L888 641 L900 625" fill="none" stroke="#06121f" stroke-width="4" stroke-linecap="round" stroke-linejoin="round"/><text x="922" y="628" font-size="20" font-weight="700" fill="#ffffff" text-anchor="start" >Free and simple</text><text x="922" y="653" font-size="15" font-weight="400" fill="#8fb3cc" text-anchor="start" >No account, no cloud, no internet</text></svg>