<svg xmlns="http://www.w3.org/2000/svg" width="1280" height="520" viewBox="0 0 1280 520" font-family="'Segoe UI','Helvetica Neue',Arial,sans-serif">
<defs>
  <linearGradient id="bg" x1="0" y1="0" x2="1" y2="1">
    <stop offset="0" stop-color="#070d1a"/><stop offset="0.55" stop-color="#0b1a2e"/><stop offset="1" stop-color="#0a2430"/>
  </linearGradient>
  <linearGradient id="acc" x1="0" y1="0" x2="1" y2="0">
    <stop offset="0" stop-color="#00c6ff"/><stop offset="1" stop-color="#00e676"/>
  </linearGradient>
  <linearGradient id="accv" x1="0" y1="0" x2="0" y2="1">
    <stop offset="0" stop-color="#00c6ff"/><stop offset="1" stop-color="#00e676"/>
  </linearGradient>
  <filter id="blur" x="-50%" y="-50%" width="200%" height="200%"><feGaussianBlur stdDeviation="60"/></filter>
  <filter id="soft" x="-20%" y="-20%" width="140%" height="140%"><feDropShadow dx="0" dy="8" stdDeviation="10" flood-color="#000" flood-opacity="0.45"/></filter>
  <pattern id="dots" width="28" height="28" patternUnits="userSpaceOnUse"><circle cx="2" cy="2" r="1.4" fill="#ffffff" fill-opacity="0.05"/></pattern>
  <style>
    .flow{stroke-dasharray:8 8;animation:flow 1.2s linear infinite}
    @keyframes flow{to{stroke-dashoffset:-16}}
    .pulse{animation:pulse 1.4s ease-in-out infinite}
    @keyframes pulse{0%,100%{opacity:1}50%{opacity:.25}}
    .wave{animation:wave 1.8s ease-in-out infinite}
    @keyframes wave{0%,100%{opacity:.25}50%{opacity:1}}
  </style>
</defs><rect width="1280" height="520" rx="28" fill="url(#bg)"/><rect width="1280" height="520" rx="28" fill="url(#dots)"/><radialGradient id="g7c4dff150100"><stop offset="0" stop-color="#7c4dff" stop-opacity="0.29"/><stop offset="1" stop-color="#7c4dff" stop-opacity="0"/></radialGradient><circle cx="150" cy="100" r="289" fill="url(#g7c4dff150100)"/><radialGradient id="g00c6ff1130430"><stop offset="0" stop-color="#00c6ff" stop-opacity="0.32"/><stop offset="1" stop-color="#00c6ff" stop-opacity="0"/></radialGradient><circle cx="1130" cy="430" r="340" fill="url(#g00c6ff1130430)"/><rect x="1.5" y="1.5" width="1277" height="517" rx="27" fill="none" stroke="#ffffff" stroke-opacity="0.08" stroke-width="2"/><text x="640.0" y="70" font-size="42" font-weight="800" fill="url(#acc)" text-anchor="middle" >Built with</text><text x="640.0" y="104" font-size="19" font-weight="400" fill="#8fb3cc" text-anchor="middle" >Modern, open tools from phone to PC</text><rect x="60" y="150" width="1160" height="102" rx="22" fill="#ffffff" fill-opacity="0.04" stroke="#3DDC84" stroke-opacity="0.35"/><rect x="60" y="150" width="8" height="102" rx="4" fill="#3DDC84"/><text x="92" y="190" font-size="15" font-weight="800" fill="#3DDC84" text-anchor="start" letter-spacing="2.5">ANDROID APP</text><rect x="92" y="204" width="107" height="34" rx="17" fill="#7F52FF" fill-opacity="0.14" stroke="#7F52FF" stroke-opacity="0.75" stroke-width="1.5"/><circle cx="110" cy="221" r="5" fill="#7F52FF"/><text x="123" y="226" font-size="15.5" font-weight="600" fill="#eaf6ff" text-anchor="start" >Kotlin</text><rect x="210.95999999999998" y="204" width="207" height="34" rx="17" fill="#4285F4" fill-opacity="0.14" stroke="#4285F4" stroke-opacity="0.75" stroke-width="1.5"/><circle cx="228.95999999999998" cy="221" r="5" fill="#4285F4"/><text x="241.95999999999998" y="226" font-size="15.5" font-weight="600" fill="#eaf6ff" text-anchor="start" >Jetpack Compose</text><rect x="430.36" y="204" width="152" height="34" rx="17" fill="#00c6ff" fill-opacity="0.14" stroke="#00c6ff" stroke-opacity="0.75" stroke-width="1.5"/><circle cx="448.36" cy="221" r="5" fill="#00c6ff"/><text x="461.36" y="226" font-size="15.5" font-weight="600" fill="#eaf6ff" text-anchor="start" >Material 3</text><rect x="593.96" y="204" width="118" height="34" rx="17" fill="#3DDC84" fill-opacity="0.14" stroke="#3DDC84" stroke-opacity="0.75" stroke-width="1.5"/><circle cx="611.96" cy="221" r="5" fill="#3DDC84"/><text x="624.96" y="226" font-size="15.5" font-weight="600" fill="#eaf6ff" text-anchor="start" >CameraX</text><rect x="724.08" y="204" width="140" height="34" rx="17" fill="#FF8A00" fill-opacity="0.14" stroke="#FF8A00" stroke-opacity="0.75" stroke-width="1.5"/><circle cx="742.08" cy="221" r="5" fill="#FF8A00"/><text x="755.08" y="226" font-size="15.5" font-weight="600" fill="#eaf6ff" text-anchor="start" >ML Kit QR</text><rect x="876.52" y="204" width="107" height="34" rx="17" fill="#00A3E0" fill-opacity="0.14" stroke="#00A3E0" stroke-opacity="0.75" stroke-width="1.5"/><circle cx="894.52" cy="221" r="5" fill="#00A3E0"/><text x="907.52" y="226" font-size="15.5" font-weight="600" fill="#eaf6ff" text-anchor="start" >OkHttp</text><rect x="995.48" y="204" width="107" height="34" rx="17" fill="#00e5ff" fill-opacity="0.14" stroke="#00e5ff" stroke-opacity="0.75" stroke-width="1.5"/><circle cx="1013.48" cy="221" r="5" fill="#00e5ff"/><text x="1026.48" y="226" font-size="15.5" font-weight="600" fill="#eaf6ff" text-anchor="start" >WebRTC</text><rect x="60" y="270" width="1160" height="102" rx="22" fill="#ffffff" fill-opacity="0.04" stroke="#47c4ff" stroke-opacity="0.35"/><rect x="60" y="270" width="8" height="102" rx="4" fill="#47c4ff"/><text x="92" y="310" font-size="15" font-weight="800" fill="#47c4ff" text-anchor="start" letter-spacing="2.5">PC RECORDER</text><rect x="92" y="324" width="129" height="34" rx="17" fill="#6ad6ef" fill-opacity="0.14" stroke="#6ad6ef" stroke-opacity="0.75" stroke-width="1.5"/><circle cx="110" cy="341" r="5" fill="#6ad6ef"/><text x="123" y="346" font-size="15.5" font-weight="600" fill="#eaf6ff" text-anchor="start" >Electron</text><rect x="233.28" y="324" width="118" height="34" rx="17" fill="#6cc24a" fill-opacity="0.14" stroke="#6cc24a" stroke-opacity="0.75" stroke-width="1.5"/><circle cx="251.28" cy="341" r="5" fill="#6cc24a"/><text x="264.28" y="346" font-size="15.5" font-weight="600" fill="#eaf6ff" text-anchor="start" >Node.js</text><rect x="363.4" y="324" width="152" height="34" rx="17" fill="#F7DF1E" fill-opacity="0.14" stroke="#F7DF1E" stroke-opacity="0.75" stroke-width="1.5"/><circle cx="381.4" cy="341" r="5" fill="#F7DF1E"/><text x="394.4" y="346" font-size="15.5" font-weight="600" fill="#fff7c2" text-anchor="start" >JavaScript</text><rect x="527.0" y="324" width="140" height="34" rx="17" fill="#c792ff" fill-opacity="0.14" stroke="#c792ff" stroke-opacity="0.75" stroke-width="1.5"/><circle cx="545.0" cy="341" r="5" fill="#c792ff"/><text x="558.0" y="346" font-size="15.5" font-weight="600" fill="#eaf6ff" text-anchor="start" >Web Audio</text><rect x="679.44" y="324" width="185" height="34" rx="17" fill="#ff6d9d" fill-opacity="0.14" stroke="#ff6d9d" stroke-opacity="0.75" stroke-width="1.5"/><circle cx="697.44" cy="341" r="5" fill="#ff6d9d"/><text x="710.44" y="346" font-size="15.5" font-weight="600" fill="#eaf6ff" text-anchor="start" >MediaRecorder</text><rect x="876.52" y="324" width="107" height="34" rx="17" fill="#2ecc71" fill-opacity="0.14" stroke="#2ecc71" stroke-opacity="0.75" stroke-width="1.5"/><circle cx="894.52" cy="341" r="5" fill="#2ecc71"/><text x="907.52" y="346" font-size="15.5" font-weight="600" fill="#eaf6ff" text-anchor="start" >FFmpeg</text><rect x="995.48" y="324" width="140" height="34" rx="17" fill="#ffb300" fill-opacity="0.14" stroke="#ffb300" stroke-opacity="0.75" stroke-width="1.5"/><circle cx="1013.48" cy="341" r="5" fill="#ffb300"/><text x="1026.48" y="346" font-size="15.5" font-weight="600" fill="#eaf6ff" text-anchor="start" >WebSocket</text><rect x="60" y="390" width="1160" height="102" rx="22" fill="#ffffff" fill-opacity="0.04" stroke="#ffb300" stroke-opacity="0.35"/><rect x="60" y="390" width="8" height="102" rx="4" fill="#ffb300"/><text x="92" y="430" font-size="15" font-weight="800" fill="#ffb300" text-anchor="start" letter-spacing="2.5">BUILD &amp; CI</text><rect x="92" y="444" width="107" height="34" rx="17" fill="#1BA8CB" fill-opacity="0.14" stroke="#1BA8CB" stroke-opacity="0.75" stroke-width="1.5"/><circle cx="110" cy="461" r="5" fill="#1BA8CB"/><text x="123" y="466" font-size="15.5" font-weight="600" fill="#eaf6ff" text-anchor="start" >Gradle</text><rect x="210.95999999999998" y="444" width="196" height="34" rx="17" fill="#2088FF" fill-opacity="0.14" stroke="#2088FF" stroke-opacity="0.75" stroke-width="1.5"/><circle cx="228.95999999999998" cy="461" r="5" fill="#2088FF"/><text x="241.95999999999998" y="466" font-size="15.5" font-weight="600" fill="#eaf6ff" text-anchor="start" >GitHub Actions</text><rect x="419.19999999999993" y="444" width="219" height="34" rx="17" fill="#8fa7ff" fill-opacity="0.14" stroke="#8fa7ff" stroke-opacity="0.75" stroke-width="1.5"/><circle cx="437.19999999999993" cy="461" r="5" fill="#8fa7ff"/><text x="450.19999999999993" y="466" font-size="15.5" font-weight="600" fill="#eaf6ff" text-anchor="start" >electron-builder</text></svg>